<svg width="30" height="30" viewBox="0 0 30 30" fill="none" xmlns="http://www.w3.org/2000/svg">
<path d="M10.0008 15C10.0008 12.2387 12.2387 9.9996 15 9.9996C17.7613 9.9996 20.0004 12.2387 20.0004 15C20.0004 17.7613 17.7613 20.0004 15 20.0004C12.2387 20.0004 10.0008 17.7613 10.0008 15ZM7.29768 15C7.29768 19.254 10.746 22.7023 15 22.7023C19.254 22.7023 22.7023 19.254 22.7023 15C22.7023 10.746 19.254 7.29768 15 7.29768C10.746 7.29768 7.29768 10.746 7.29768 15ZM21.2072 6.99228C21.2071 7.34829 21.3125 7.69634 21.5102 7.99243C21.7079 8.28852 21.9889 8.51934 22.3177 8.65571C22.6466 8.79208 23.0085 8.82787 23.3577 8.75855C23.7069 8.68924 24.0277 8.51793 24.2795 8.2663C24.5314 8.01467 24.7029 7.69401 24.7725 7.34487C24.8421 6.99573 24.8066 6.6338 24.6705 6.30483C24.5344 5.97587 24.3038 5.69466 24.0079 5.49675C23.7119 5.29885 23.364 5.19314 23.008 5.193H23.0072C22.53 5.19322 22.0724 5.38284 21.7349 5.7202C21.3974 6.05756 21.2077 6.51508 21.2072 6.99228ZM8.94 27.2096C7.47756 27.143 6.68268 26.8994 6.15444 26.6936C5.45412 26.421 4.95444 26.0963 4.42908 25.5716C3.90372 25.047 3.57852 24.5478 3.30708 23.8475C3.10116 23.3195 2.85756 22.5244 2.79108 21.0619C2.71836 19.4808 2.70384 19.0058 2.70384 15.0001C2.70384 10.9944 2.71956 10.5208 2.79108 8.93832C2.85768 7.47588 3.10308 6.68232 3.30708 6.15276C3.57972 5.45244 3.90444 4.95276 4.42908 4.4274C4.95372 3.90204 5.45292 3.57684 6.15444 3.3054C6.68244 3.09948 7.47756 2.85588 8.94 2.7894C10.5211 2.71668 10.9961 2.70216 15 2.70216C19.0039 2.70216 19.4794 2.71788 21.0618 2.7894C22.5242 2.856 23.3178 3.1014 23.8474 3.3054C24.5477 3.57684 25.0474 3.90276 25.5727 4.4274C26.0981 4.95204 26.4221 5.45244 26.6947 6.15276C26.9006 6.68076 27.1442 7.47588 27.2107 8.93832C27.2834 10.5208 27.298 10.9944 27.298 15.0001C27.298 19.0058 27.2834 19.4795 27.2107 21.0619C27.1441 22.5244 26.8993 23.3192 26.6947 23.8475C26.4221 24.5478 26.0974 25.0475 25.5727 25.5716C25.0481 26.0958 24.5477 26.421 23.8474 26.6936C23.3194 26.8996 22.5242 27.1432 21.0618 27.2096C19.4807 27.2824 19.0057 27.2969 15 27.2969C10.9943 27.2969 10.5206 27.2824 8.94 27.2096ZM8.8158 0.09084C7.21896 0.16356 6.1278 0.41676 5.17488 0.78756C4.188 1.17048 3.35256 1.6842 2.51772 2.51772C1.68288 3.35124 1.17048 4.188 0.78756 5.17488C0.41676 6.1284 0.16356 7.21896 0.09084 8.8158C0.01692 10.4152 0 10.9265 0 15C0 19.0735 0.01692 19.5848 0.09084 21.1842C0.16356 22.7812 0.41676 23.8716 0.78756 24.8251C1.17048 25.8114 1.683 26.6491 2.51772 27.4823C3.35244 28.3154 4.188 28.8284 5.17488 29.2124C6.1296 29.5832 7.21896 29.8364 8.8158 29.9092C10.416 29.9819 10.9265 30 15 30C19.0735 30 19.5848 29.9831 21.1842 29.9092C22.7812 29.8364 23.8716 29.5832 24.8251 29.2124C25.8114 28.8284 26.6474 28.3158 27.4823 27.4823C28.3171 26.6488 28.8284 25.8114 29.2124 24.8251C29.5832 23.8716 29.8376 22.781 29.9092 21.1842C29.9819 19.5836 29.9988 19.0735 29.9988 15C29.9988 10.9265 29.9819 10.4152 29.9092 8.8158C29.8364 7.21884 29.5832 6.1278 29.2124 5.17488C28.8284 4.1886 28.3158 3.35256 27.4823 2.51772C26.6488 1.68288 25.8114 1.17048 24.8263 0.78756C23.8716 0.41676 22.781 0.16236 21.1854 0.09084C19.586 0.01812 19.0747 0 15.0012 0C10.9277 0 10.416 0.01692 8.8158 0.09084Z" fill="black"/>
</svg>
