<svg width="20" height="32" viewBox="0 0 20 32" fill="none" xmlns="http://www.w3.org/2000/svg">
<path d="M10.0015 4.84016C11.8871 4.84016 13.4209 6.37396 13.4209 8.25959C13.4209 10.1436 11.8867 11.6774 10.0015 11.6774C8.11707 11.6774 6.58288 10.1436 6.58288 8.25959C6.58248 6.37357 8.11747 4.84016 10.0015 4.84016ZM10.0015 16.5152C14.5563 16.5152 18.2603 12.8124 18.2603 8.25959C18.2603 3.70444 14.5567 0 10.0015 0C5.44716 0 1.74272 3.70484 1.74272 8.25959C1.74272 12.8124 5.44716 16.5152 10.0015 16.5152ZM13.3427 23.2517C15.0416 22.8648 16.663 22.1934 18.1382 21.266C18.6812 20.9244 19.0663 20.3809 19.2088 19.7553C19.3512 19.1297 19.2392 18.4731 18.8976 17.93C18.7286 17.6609 18.5082 17.4276 18.249 17.2437C17.9898 17.0598 17.6969 16.9287 17.387 16.8581C17.0771 16.7875 16.7564 16.7786 16.4431 16.832C16.1298 16.8855 15.8301 17.0001 15.5611 17.1695C12.1777 19.2966 7.82296 19.295 4.44228 17.1695C4.17338 17.0001 3.87371 16.8854 3.56044 16.8319C3.24716 16.7785 2.92641 16.7873 2.61656 16.858C2.3067 16.9286 2.01382 17.0597 1.75467 17.2436C1.49551 17.4276 1.27518 17.6608 1.10627 17.93C0.764488 18.473 0.652361 19.1294 0.794547 19.755C0.936734 20.3807 1.32159 20.9242 1.86447 21.266C3.33955 22.1931 4.96057 22.8644 6.65917 23.2517L2.04236 27.8693C1.58865 28.3232 1.33383 28.9387 1.33394 29.5804C1.33405 30.2222 1.58909 30.8376 2.04295 31.2913C2.49682 31.745 3.11233 31.9998 3.75407 31.9997C4.39582 31.9996 5.01124 31.7446 5.46495 31.2907L10.0007 26.7541L14.5393 31.2911C14.7637 31.5158 15.0302 31.6941 15.3235 31.8157C15.6169 31.9374 15.9314 32 16.249 32C16.5666 32 16.881 31.9374 17.1744 31.8157C17.4678 31.6941 17.7343 31.5158 17.9587 31.2911C18.1838 31.0667 18.3623 30.8001 18.4842 30.5066C18.606 30.2131 18.6687 29.8984 18.6687 29.5806C18.6687 29.2628 18.606 28.9481 18.4842 28.6546C18.3623 28.361 18.1838 28.0945 17.9587 27.8701L13.3427 23.2517Z" fill="black"/>
</svg>
