<svg width="29" height="24" viewBox="0 0 29 24" fill="none" xmlns="http://www.w3.org/2000/svg">
<path d="M25.7625 5.8125C25.7625 6.075 25.7625 6.3375 25.7625 6.5625C25.7625 14.325 19.8375 23.2875 9.0375 23.2875C5.7 23.2875 2.625 22.3125 0 20.6625C0.45 20.7 0.9375 20.7375 1.3875 20.7375C4.125 20.7375 6.675 19.8 8.7 18.225C6.1125 18.1875 3.9375 16.4625 3.225 14.1375C3.6 14.2125 3.9375 14.25 4.35 14.25C4.875 14.25 5.4 14.175 5.8875 14.025C3.1875 13.5 1.1625 11.1375 1.1625 8.2875C1.1625 8.25 1.1625 8.25 1.1625 8.2125C1.95 8.6625 2.85 8.925 3.825 8.9625C2.25 7.9125 1.2 6.1125 1.2 4.05C1.2 2.9625 1.5 1.95 1.9875 1.0875C4.875 4.65 9.225 6.975 14.1 7.2375C13.9875 6.825 13.95 6.3375 13.95 5.8875C13.95 2.625 16.575 0 19.8375 0C21.525 0 23.0625 0.7125 24.1125 1.8375C25.4625 1.575 26.7 1.0875 27.8625 0.4125C27.4125 1.8 26.475 2.925 25.275 3.675C26.475 3.525 27.6 3.225 28.65 2.7375C27.9 3.9375 26.925 4.9875 25.7625 5.8125Z" fill="black"/>
</svg>
