<svg width="32" height="20" viewBox="0 0 32 20" fill="none" xmlns="http://www.w3.org/2000/svg">
<path fill-rule="evenodd" clip-rule="evenodd" d="M31.2658 1.5346C31.4884 0.792931 31.2658 0.247803 30.2071 0.247803H26.7062C25.816 0.247803 25.4059 0.718662 25.1834 1.23803C25.1834 1.23803 23.403 5.5773 20.8809 8.39596C20.0649 9.21189 19.6941 9.47121 19.249 9.47121C19.0264 9.47121 18.7044 9.2119 18.7044 8.47022V1.5346C18.7044 0.644396 18.4461 0.247803 17.7041 0.247803H12.2028C11.6467 0.247803 11.3121 0.6609 11.3121 1.05249C11.3121 1.89644 12.5729 2.09098 12.703 4.46454V9.61999C12.703 10.7503 12.4989 10.9553 12.0538 10.9553C10.867 10.9553 7.98036 6.59628 6.26796 1.60887C5.93238 0.639394 5.59581 0.247803 4.7011 0.247803H1.20028C0.200047 0.247803 0 0.718662 0 1.23803C0 2.16525 1.18703 6.76433 5.52629 12.8467C8.41947 17.0002 12.4949 19.2522 16.2038 19.2522C18.4293 19.2522 18.7044 18.7521 18.7044 17.8907V14.7512C18.7044 13.751 18.9152 13.5514 19.6196 13.5514C20.1392 13.5514 21.0292 13.811 23.1064 15.8137C25.4799 18.187 25.871 19.2522 27.2064 19.2522H30.7072C31.7074 19.2522 32.2075 18.7521 31.919 17.7651C31.6034 16.7814 30.4701 15.3546 28.9663 13.6627C28.1503 12.6982 26.9263 11.6597 26.5557 11.1406C26.0363 10.4729 26.1846 10.1764 26.5557 9.58323C26.5557 9.58323 30.8207 3.57483 31.2658 1.53485V1.5346Z" fill="black"/>
</svg>
